<?xml version="1.0" encoding="UTF-8" standalone="no"?>
<!-- icon666.com - MILLIONS vector ICONS FREE -->

<svg
   version="1.1"
   id="Capa_1"
   x="0px"
   y="0px"
   viewBox="0 0 34.999999 34.999999"
   xml:space="preserve"
   sodipodi:docname="cross.svg"
   width="35"
   height="35"
   inkscape:version="1.3.1 (9b9bdc1480, 2023-11-25, custom)"
   xmlns:inkscape="http://www.inkscape.org/namespaces/inkscape"
   xmlns:sodipodi="http://sodipodi.sourceforge.net/DTD/sodipodi-0.dtd"
   xmlns="http://www.w3.org/2000/svg"
   xmlns:svg="http://www.w3.org/2000/svg"><defs
     id="defs1" /><sodipodi:namedview
     id="namedview1"
     pagecolor="#ffffff"
     bordercolor="#000000"
     borderopacity="0.25"
     inkscape:showpageshadow="2"
     inkscape:pageopacity="0.0"
     inkscape:pagecheckerboard="0"
     inkscape:deskcolor="#d1d1d1"
     showgrid="false"
     inkscape:zoom="8.7647218"
     inkscape:cx="47.405954"
     inkscape:cy="47.234814"
     inkscape:window-width="1920"
     inkscape:window-height="1011"
     inkscape:window-x="0"
     inkscape:window-y="32"
     inkscape:window-maximized="1"
     inkscape:current-layer="Capa_1" /><g
     id="g1"
     transform="matrix(0.36871311,0,0,0.36870825,-6.4524794e-4,0)"
     style="fill:#984a8a;fill-opacity:1"><path
       d="M 55.931,47.463 94.306,9.09 c 0.826,-0.827 0.826,-2.167 0,-2.994 L 88.833,0.62 C 88.436,0.224 87.896,0 87.335,0 86.773,0 86.234,0.224 85.837,0.62 L 47.463,38.994 9.089,0.62 C 8.294,-0.175 6.887,-0.174 6.094,0.62 L 0.622,6.096 c -0.827,0.827 -0.827,2.167 0,2.994 L 38.996,47.463 0.622,85.836 c -0.827,0.827 -0.827,2.167 0,2.994 l 5.473,5.476 c 0.397,0.396 0.936,0.62 1.498,0.62 0.562,0 1.1,-0.224 1.497,-0.62 L 47.464,55.932 85.838,94.306 c 0.397,0.396 0.937,0.62 1.498,0.62 0.561,0 1.101,-0.224 1.498,-0.62 l 5.473,-5.476 c 0.826,-0.827 0.826,-2.167 0,-2.994 z"
       id="path1"
       style="fill:#984a8a;fill-opacity:1" /></g></svg>
