<?xml version="1.0" encoding="UTF-8" standalone="no"?>
<!-- icon666.com - MILLIONS vector ICONS FREE -->

<svg
   version="1.1"
   id="Capa_1"
   x="0px"
   y="0px"
   viewBox="0 0 24.999491 18.359001"
   xml:space="preserve"
   sodipodi:docname="email.svg"
   width="24.999491"
   height="18.359001"
   inkscape:version="1.3.1 (9b9bdc1480, 2023-11-25, custom)"
   xmlns:inkscape="http://www.inkscape.org/namespaces/inkscape"
   xmlns:sodipodi="http://sodipodi.sourceforge.net/DTD/sodipodi-0.dtd"
   xmlns="http://www.w3.org/2000/svg"
   xmlns:svg="http://www.w3.org/2000/svg"><defs
     id="defs4" /><sodipodi:namedview
     id="namedview4"
     pagecolor="#ffffff"
     bordercolor="#000000"
     borderopacity="0.25"
     inkscape:showpageshadow="2"
     inkscape:pageopacity="0.0"
     inkscape:pagecheckerboard="0"
     inkscape:deskcolor="#d1d1d1"
     inkscape:zoom="7.9269904"
     inkscape:cx="10.092103"
     inkscape:cy="29.014795"
     inkscape:window-width="1920"
     inkscape:window-height="1011"
     inkscape:window-x="0"
     inkscape:window-y="32"
     inkscape:window-maximized="1"
     inkscape:current-layer="Capa_1"
     showgrid="false" /><g
     id="g2"
     transform="matrix(0.04882713,0,0,0.04882713,0,-3.3202448)"
     style="fill:#ffffff;fill-opacity:1"><g
       id="g1"
       style="fill:#ffffff;fill-opacity:1"><path
         d="M 452,68 H 60 C 26.916,68 0,94.916 0,128 v 256 c 0,33.084 26.916,60 60,60 h 392 c 33.084,0 60,-26.916 60,-60 V 128 C 512,94.916 485.084,68 452,68 Z m 20,316 c 0,11.028 -8.972,20 -20,20 H 60 C 48.972,404 40,395.028 40,384 V 128 c 0,-11.028 8.972,-20 20,-20 h 392 c 11.028,0 20,8.972 20,20 z"
         id="path1"
         style="fill:#ffffff;fill-opacity:1" /></g></g><g
     id="g4"
     transform="matrix(0.04882713,0,0,0.04882713,0,-3.3202448)"
     style="fill:#ffffff;fill-opacity:1"><g
       id="g3"
       style="fill:#ffffff;fill-opacity:1"><polygon
         points="256,300.926 492.478,125.032 468.604,92.937 256,251.074 43.396,92.937 19.522,125.032 "
         id="polygon2"
         style="fill:#ffffff;fill-opacity:1" /></g></g></svg>
