<?xml version="1.0" encoding="UTF-8" standalone="no"?>
<!-- icon666.com - MILLIONS vector ICONS FREE -->

<svg
   version="1.1"
   id="Layer_1"
   x="0px"
   y="0px"
   viewBox="0 0 35 34.999989"
   xml:space="preserve"
   sodipodi:docname="whatsapp.svg"
   width="35"
   height="34.999989"
   inkscape:version="1.3.1 (9b9bdc1480, 2023-11-25, custom)"
   xmlns:inkscape="http://www.inkscape.org/namespaces/inkscape"
   xmlns:sodipodi="http://sodipodi.sourceforge.net/DTD/sodipodi-0.dtd"
   xmlns="http://www.w3.org/2000/svg"
   xmlns:svg="http://www.w3.org/2000/svg"><defs
     id="defs2" /><sodipodi:namedview
     id="namedview2"
     pagecolor="#ffffff"
     bordercolor="#000000"
     borderopacity="0.25"
     inkscape:showpageshadow="2"
     inkscape:pageopacity="0.0"
     inkscape:pagecheckerboard="0"
     inkscape:deskcolor="#d1d1d1"
     inkscape:zoom="1.625"
     inkscape:cx="255.69231"
     inkscape:cy="255.38462"
     inkscape:window-width="1920"
     inkscape:window-height="1011"
     inkscape:window-x="0"
     inkscape:window-y="32"
     inkscape:window-maximized="1"
     inkscape:current-layer="Layer_1"
     showgrid="false" /><g
     id="g2"
     transform="matrix(0.06835935,0,0,0.06835935,1.3210457e-5,0)"
     style="fill:#984a8a;fill-opacity:1"><path
       style="fill:#984a8a;fill-opacity:1"
       d="m 378.853,294.202 c -0.997,-0.479 -38.324,-18.859 -44.956,-21.246 -2.708,-0.972 -5.609,-1.922 -8.694,-1.922 -5.04,0 -9.274,2.512 -12.572,7.446 -3.729,5.542 -15.016,18.736 -18.503,22.678 -0.456,0.52 -1.077,1.142 -1.45,1.142 -0.334,0 -6.111,-2.379 -7.86,-3.138 -40.041,-17.393 -70.433,-59.219 -74.601,-66.272 -0.595,-1.014 -0.62,-1.474 -0.625,-1.474 0.146,-0.537 1.493,-1.887 2.188,-2.583 2.033,-2.011 4.236,-4.663 6.367,-7.228 1.009,-1.215 2.02,-2.432 3.012,-3.579 3.092,-3.597 4.468,-6.39 6.064,-9.625 l 0.836,-1.681 c 3.897,-7.742 0.569,-14.274 -0.507,-16.384 -0.883,-1.765 -16.643,-39.803 -18.319,-43.799 -4.03,-9.643 -9.354,-14.133 -16.753,-14.133 -0.687,0 0,0 -2.879,0.121 -3.506,0.148 -22.598,2.661 -31.039,7.983 -8.952,5.644 -24.096,23.633 -24.096,55.271 0,28.474 18.07,55.359 25.828,65.584 0.193,0.258 0.547,0.781 1.061,1.533 29.711,43.39 66.75,75.547 104.297,90.546 36.148,14.439 53.265,16.108 62.996,16.108 0.002,0 0.002,0 0.002,0 4.089,0 7.362,-0.321 10.25,-0.605 l 1.832,-0.175 c 12.487,-1.107 39.929,-15.327 46.171,-32.673 4.917,-13.663 6.214,-28.591 2.942,-34.008 -2.241,-3.686 -6.103,-5.54 -10.992,-7.887 z"
       id="path1" /><path
       style="fill:#984a8a;fill-opacity:1"
       d="M 260.545,0 C 121.879,0 9.066,111.965 9.066,249.588 c 0,44.512 11.912,88.084 34.479,126.218 L 0.352,503.216 c -0.805,2.375 -0.206,5.002 1.551,6.791 C 3.172,511.302 4.892,512 6.649,512 7.322,512 8,511.899 8.662,511.687 L 141.516,469.47 c 36.355,19.424 77.445,29.678 119.03,29.678 C 399.199,499.15 512,387.197 512,249.588 512,111.965 399.199,0 260.545,0 Z m 0,447.159 c -39.13,0 -77.029,-11.299 -109.608,-32.677 -1.095,-0.72 -2.367,-1.089 -3.647,-1.089 -0.677,0 -1.355,0.103 -2.015,0.313 l -66.552,21.155 21.484,-63.383 c 0.695,-2.051 0.347,-4.314 -0.933,-6.063 -24.809,-33.898 -37.923,-73.949 -37.923,-115.827 0,-108.955 89.357,-197.597 199.191,-197.597 109.821,0 199.168,88.642 199.168,197.597 0.003,108.942 -89.343,197.571 -199.165,197.571 z"
       id="path2" /></g></svg>
